<?xml version="1.0" encoding="UTF-8"?><svg xmlns="http://www.w3.org/2000/svg" viewBox="0 0 671.1 76.48"><defs><style>.d{fill:#555770;}.e{fill:#3e7bfa;}</style></defs><g id="a"/><g id="b"><g id="c"><g><path class="e" d="M0,11.35V0H12.84V11.56l-12.84-.22Zm0,62.73V20.29H12.72l.12,53.89-12.84-.11Z"/><path class="e" d="M67.68,74.08l-.12-31.31c0-4.29-.98-7.44-2.94-9.44-1.96-2-4.94-3-8.94-3-4.24,0-7.7,1.29-10.38,3.87-2.68,2.58-4.02,5.91-4.02,9.98v30.11l-12.96-.22V20.84h12.96v4.36c2.32-1.89,5.14-3.53,8.46-4.91,3.32-1.38,7.42-1.82,12.3-1.31,6.4,.58,11.1,2.93,14.1,7.04,3,4.11,4.5,8.09,4.5,11.95v36.33l-12.96-.22Z"/><path class="e" d="M140.34,50.4c2.28,2.11,3.3,4.95,3.06,8.51-.32,4.87-2.98,9.02-7.98,12.44-5,3.42-10.98,5.13-17.94,5.13-10.48,0-17.68-2.49-21.6-7.47-3.92-4.98-5.96-9.25-6.12-12.82h12.6c.32,2.55,1.74,4.76,4.26,6.66,2.52,1.89,5.98,2.84,10.38,2.84,3.52,0,6.42-.58,8.7-1.75,2.28-1.16,3.58-2.65,3.9-4.47,.24-1.24-.18-2.33-1.26-3.27-1.08-.94-2.58-1.78-4.5-2.51-3.04-1.16-6.44-2.07-10.2-2.73-3.76-.65-6.92-1.34-9.48-2.07-3.92-1.24-7.04-3.02-9.36-5.35-2.32-2.33-3.32-5.38-3-9.16,.32-4.07,2.66-7.8,7.02-11.18,4.36-3.38,10.26-5.07,17.7-5.07,8.16,0,14.36,2.02,18.6,6.05,4.24,4.04,6.28,8.09,6.12,12.16h-12.48c.08-1.45-.84-3.07-2.76-4.86-1.92-1.78-5.12-2.67-9.6-2.67-3.76,0-6.58,.58-8.46,1.75-1.88,1.16-2.86,2.47-2.94,3.93-.08,1.82,.58,3.09,1.98,3.82,1.4,.73,3.18,1.38,5.34,1.96,2.48,.66,5.72,1.31,9.72,1.96,4,.65,7.44,1.64,10.32,2.95,3.04,1.38,5.7,3.13,7.98,5.24Z"/><path class="e" d="M202.08,26.78c5.44,5.49,8.16,12.35,8.16,20.56s-2.72,15.02-8.16,20.62c-5.44,5.6-12.8,8.4-22.08,8.4s-16.48-2.8-21.84-8.4c-5.36-5.6-8.04-12.47-8.04-20.62s2.68-15.07,8.04-20.56c5.36-5.49,12.64-8.24,21.84-8.24s16.64,2.75,22.08,8.24Zm-10.2,33.71c2.96-3.45,4.44-7.84,4.44-13.15s-1.48-9.64-4.44-12.98c-2.96-3.34-6.92-5.02-11.88-5.02s-8.88,1.67-11.76,5.02c-2.88,3.35-4.32,7.67-4.32,12.98s1.44,9.69,4.32,13.15c2.88,3.46,6.8,5.18,11.76,5.18s8.92-1.73,11.88-5.18Z"/><path class="e" d="M269.52,26.78c5.44,5.49,8.16,12.35,8.16,20.56s-2.72,15.02-8.16,20.62c-5.44,5.6-12.8,8.4-22.08,8.4s-16.48-2.8-21.84-8.4c-5.36-5.6-8.04-12.47-8.04-20.62s2.68-15.07,8.04-20.56c5.36-5.49,12.64-8.24,21.84-8.24s16.64,2.75,22.08,8.24Zm-10.2,33.71c2.96-3.45,4.44-7.84,4.44-13.15s-1.48-9.64-4.44-12.98c-2.96-3.34-6.92-5.02-11.88-5.02s-8.88,1.67-11.76,5.02c-2.88,3.35-4.32,7.67-4.32,12.98s1.44,9.69,4.32,13.15c2.88,3.46,6.8,5.18,11.76,5.18s8.92-1.73,11.88-5.18Z"/><path class="d" d="M321.36,30.33c-2.08,0-3.96,.11-5.64,.33-1.68,.22-3.28,.73-4.8,1.53-2.88,1.46-5.08,3.51-6.6,6.16-1.52,2.66-2.28,6.13-2.28,10.42l.12,25.53-13.08-.22V20.62h12.96v6.11c1.28-1.6,2.66-2.93,4.14-3.98,1.48-1.05,3.3-2.02,5.46-2.89,1.68-.65,3.62-1.07,5.82-1.25,2.2-.18,3.5-.31,3.9-.38v12.11Z"/><path class="d" d="M338.17,51.38c.4,3.78,2.12,7.13,5.16,10.04,3.04,2.91,6.72,4.36,11.04,4.36,4.08,0,7.28-.85,9.6-2.56,2.32-1.71,3.76-3.33,4.32-4.85l14.04-.11c-1.44,4-4.28,8.02-8.52,12.05-4.24,4.04-10.64,6.05-19.2,6.05s-16.06-2.82-21.78-8.46c-5.72-5.63-8.58-12.53-8.58-20.67s2.76-15.22,8.28-20.78c5.52-5.56,12.84-8.35,21.96-8.35,8,0,15.08,2.67,21.24,8.02,6.16,5.35,9,13.76,8.52,25.26h-46.08Zm32.16-9.93c-.56-3.71-2.24-6.78-5.04-9.22-2.8-2.44-6.44-3.65-10.92-3.65-4.24,0-7.78,1.16-10.62,3.49-2.84,2.33-4.66,5.45-5.46,9.38h32.04Z"/><path class="d" d="M441.19,50.4c2.28,2.11,3.3,4.95,3.06,8.51-.32,4.87-2.98,9.02-7.98,12.44-5,3.42-10.98,5.13-17.94,5.13-10.48,0-17.68-2.49-21.6-7.47-3.92-4.98-5.96-9.25-6.12-12.82h12.6c.32,2.55,1.74,4.76,4.26,6.66,2.52,1.89,5.98,2.84,10.38,2.84,3.52,0,6.42-.58,8.7-1.75,2.28-1.16,3.58-2.65,3.9-4.47,.24-1.24-.18-2.33-1.26-3.27-1.08-.94-2.58-1.78-4.5-2.51-3.04-1.16-6.44-2.07-10.2-2.73-3.76-.65-6.92-1.34-9.48-2.07-3.92-1.24-7.04-3.02-9.36-5.35-2.32-2.33-3.32-5.38-3-9.16,.32-4.07,2.66-7.8,7.02-11.18,4.36-3.38,10.26-5.07,17.7-5.07,8.16,0,14.36,2.02,18.6,6.05,4.24,4.04,6.28,8.09,6.12,12.16h-12.48c.08-1.45-.84-3.07-2.76-4.86-1.92-1.78-5.12-2.67-9.6-2.67-3.76,0-6.58,.58-8.46,1.75-1.88,1.16-2.86,2.47-2.94,3.93-.08,1.82,.58,3.09,1.98,3.82,1.4,.73,3.18,1.38,5.34,1.96,2.48,.66,5.72,1.31,9.72,1.96,4,.65,7.44,1.64,10.32,2.95,3.04,1.38,5.7,3.13,7.98,5.24Z"/><path class="d" d="M493.33,73.97l-.12-4.8c-2,1.96-4.6,3.64-7.8,5.02-3.2,1.38-6.92,2.04-11.16,1.96-5.44-.15-10.22-1.96-14.34-5.46-4.12-3.49-6.18-8.29-6.18-14.4l.12-35.46h13.08v31.53c0,4.36,1.06,7.58,3.18,9.66,2.12,2.07,5.18,3.07,9.18,3,4.08-.14,7.42-1.47,10.02-3.98,2.6-2.51,3.9-5.98,3.9-10.42l.12-29.78h12.72v53.02l-12.72,.11Z"/><path class="d" d="M587.65,74.08l.12-32.84c0-3.64-.52-6.51-1.56-8.62-1.04-2.11-3.52-3.09-7.44-2.95-3.52,.15-6.26,1.38-8.22,3.71-1.96,2.33-2.94,5.53-2.94,9.6v31.31l-12.72-.22-.12-32.84c0-3.64-.56-6.51-1.68-8.62-1.12-2.11-3.68-3.09-7.68-2.95-3.44,.15-6.12,1.38-8.04,3.71-1.92,2.33-2.84,5.53-2.76,9.6l.24,31.31-13.2-.22V20.84h12.96v4.47c1.84-1.67,4.06-3.24,6.66-4.69,2.6-1.45,6.1-2.04,10.5-1.75,2.88,.22,5.46,.96,7.74,2.24,2.28,1.27,4.06,3.11,5.34,5.51,1.52-1.53,3.82-3.34,6.9-5.45,3.08-2.11,7.54-2.87,13.38-2.29,5.76,.51,9.82,2.67,12.18,6.49,2.36,3.82,3.54,7.98,3.54,12.49v36.44l-13.2-.22Z"/><path class="d" d="M624.97,51.38c.4,3.78,2.12,7.13,5.16,10.04,3.04,2.91,6.72,4.36,11.04,4.36,4.08,0,7.28-.85,9.6-2.56,2.32-1.71,3.76-3.33,4.32-4.85l14.04-.11c-1.44,4-4.28,8.02-8.52,12.05-4.24,4.04-10.64,6.05-19.2,6.05s-16.06-2.82-21.78-8.46c-5.72-5.63-8.58-12.53-8.58-20.67s2.76-15.22,8.28-20.78c5.52-5.56,12.84-8.35,21.96-8.35,8,0,15.08,2.67,21.24,8.02,6.16,5.35,9,13.76,8.52,25.26h-46.08Zm32.16-9.93c-.56-3.71-2.24-6.78-5.04-9.22-2.8-2.44-6.44-3.65-10.92-3.65-4.24,0-7.78,1.16-10.62,3.49-2.84,2.33-4.66,5.45-5.46,9.38h32.04Z"/></g></g></g></svg>